<?xml version="1.0" encoding="UTF-8" standalone="no"?>
<svg
   xmlns:dc="http://purl.org/dc/elements/1.1/"
   xmlns:cc="http://creativecommons.org/ns#"
   xmlns:rdf="http://www.w3.org/1999/02/22-rdf-syntax-ns#"
   xmlns:svg="http://www.w3.org/2000/svg"
   xmlns="http://www.w3.org/2000/svg"
   xmlns:sodipodi="http://sodipodi.sourceforge.net/DTD/sodipodi-0.dtd"
   xmlns:inkscape="http://www.inkscape.org/namespaces/inkscape"
   width="320.26382mm"
   height="315.58221mm"
   viewBox="0 0 320.26382 315.58221"
   version="1.1"
   id="svg8"
   inkscape:version="0.92.3 (2405546, 2018-03-11)"
   sodipodi:docname="icon.svg">
  <defs
     id="defs2" />
  <sodipodi:namedview
     id="base"
     pagecolor="#ffffff"
     bordercolor="#ffffff"
     borderopacity="1.0"
     inkscape:pageopacity="0.0"
     inkscape:pageshadow="2"
     inkscape:zoom="0.49497475"
     inkscape:cx="479.90363"
     inkscape:cy="753.7964"
     inkscape:document-units="mm"
     inkscape:current-layer="layer1"
     showgrid="false"
     inkscape:window-width="1920"
     inkscape:window-height="1017"
     inkscape:window-x="1912"
     inkscape:window-y="-8"
     inkscape:window-maximized="1" />
  <metadata
     id="metadata5">
    <rdf:RDF>
      <cc:Work
         rdf:about="">
        <dc:format>image/svg+xml</dc:format>
        <dc:type
           rdf:resource="http://purl.org/dc/dcmitype/StillImage" />
        <dc:title></dc:title>
      </cc:Work>
    </rdf:RDF>
  </metadata>
  <g
     inkscape:label="Layer 1"
     inkscape:groupmode="layer"
     id="layer1"
     transform="translate(42.287556,24.87637)">
    <g
       id="g3750"
       transform="translate(-5.4781225,-34.126094)">
      <path
         style="fill:#ffffff;stroke-width:0.26458335"
         d="m 119.80813,324.06033 c -0.97796,-0.52829 -8.21609,-7.50377 -26.425054,-25.46615 -13.792988,-13.6062 -45.615252,-44.96984 -70.716141,-69.69698 -61.447306,-60.53237 -58.565506,-57.63805 -59.13338,-59.39016 -0.547285,-1.68859 -0.430575,-3.93217 0.285412,-5.48661 0.634143,-1.37675 1.377567,-2.11629 76.180825,-75.783104 C 75.652397,53.126374 108.0374,21.217649 111.96646,17.329049 l 7.14375,-7.070183 1.85208,-0.5755434 c 2.15315,-0.6690987 3.50512,-0.5782667 5.55625,0.3732934 1.07323,0.497891 7.51526,6.72105 34.13125,32.971604 18.04459,17.79683 52.76835,52.03583 77.16394,76.08667 32.85892,32.39458 44.49537,44.02274 44.89492,44.86289 1.2868,2.70593 0.89763,5.53129 -1.08514,7.87807 -0.6146,0.72744 -35.4548,35.15071 -77.42264,76.49615 -63.14806,62.21154 -76.53797,75.28193 -77.65521,75.80215 -2.01508,0.93829 -4.90138,0.89808 -6.73753,-0.0938 z m 62.13814,-99.10932 c 34.80681,-34.30482 58.21082,-57.56358 58.21082,-57.84953 0,-0.55765 -22.56793,-22.85117 -23.25156,-22.96884 -0.29374,-0.0506 -13.52488,12.8121 -38.37495,37.30625 -20.85965,20.56088 -38.02999,37.4231 -38.15631,37.47161 -0.12953,0.0497 -0.22968,-32.82218 -0.22968,-75.38063 V 68.061053 l -8.23588,-8.095417 c -4.52973,-4.45248 -8.3863,-8.131416 -8.57016,-8.175416 -0.18385,-0.044 -13.59294,12.991319 -29.797975,28.96738 -16.205036,15.976058 -42.381981,41.7792 -58.170991,57.34031 -15.789011,15.5611 -28.8064426,28.45868 -28.9276244,28.66127 -0.1320985,0.22084 -0.079124,0.55893 0.1322917,0.84427 1.0206514,1.37755 66.4523407,65.50636 66.8372337,65.50636 0.426225,0 0.459247,-1.44878 0.522575,-22.92673 l 0.0676,-22.92672 -10.078601,-9.92919 c -5.64129,-5.55765 -10.039361,-10.09262 -9.989476,-10.3004 0.04902,-0.20417 11.816778,-11.92792 26.150581,-26.05279 l 26.061466,-25.68157 0.13229,75.42109 0.13229,75.4211 8.33438,8.16575 c 4.5839,4.49115 8.48208,8.1334 8.66261,8.09384 0.18053,-0.0395 26.52311,-25.88897 58.53907,-57.44318 z m 1.60843,-93.78069 c 7.89567,-7.79472 10.07257,-10.08431 9.88255,-10.39418 -0.60339,-0.98395 -19.97404,-19.86352 -20.2767,-19.76265 -0.27196,0.0906 -0.3536,4.05002 -0.40835,19.80272 -0.0376,10.82919 -0.0116,19.83826 0.0579,20.02016 0.0694,0.1819 0.23699,0.33073 0.37233,0.33073 0.13534,0 4.80288,-4.49855 10.37232,-9.99678 z"
         id="path3752"
         inkscape:connector-curvature="0" />
    </g>
  </g>
</svg>
